<svg width="250" height="270" xmlns="http://www.w3.org/2000/svg">

 <g>
  <title>background</title>
  <rect fill="none" id="canvas_background" height="272" width="252" y="-1" x="-1"/>
 </g>
 <g>
  <title>Layer 1</title>
  <g id="svgg">
   <path fill-rule="evenodd" fill="#ff710b" d="m138.024754,0.451654c-0.353,0.142 0.185,0.719 1.371,1.471c2.677,1.698 4.391,4.577 7.256,12.186l2.443,6.489l0.925,-2.023c3.875,-8.467 -4.505,-21.128 -11.995,-18.123m-36.909,10.832c-22.449,7.206 -28.656,9.353 -27.641,9.562c5.1,1.05 9.541,8.676 13.458,23.11c3.302,12.168 14.856,38.04 25.597,57.316c6.095,10.938 6.802,16.915 2.646,22.365c-1.769,2.319 -1.294,2.195 6.622,-1.732c13.487,-6.69 34.305,-15.099 47.352,-19.126c8.922,-2.754 8.809,-12.415 -0.31,-26.681c-6.395,-10.003 -16.738,-33.273 -26.867,-60.444c-3.484,-9.345 -4.783,-11.473 -7.856,-12.869c-2.749,-1.249 -2.174,-1.397 -33.001,8.499m-33.522,12.204c-7.689,1.849 -9.313,13.966 -2.727,20.362c6.717,6.523 15.328,2.153 15.266,-7.747c-0.048,-7.619 -6.464,-14.075 -12.539,-12.615m106.267,51.829c3.817,5.796 6.989,14.419 6.689,18.186l-0.16,2.016l1.258,-1.505c5.264,-6.301 0.065,-20.158 -7.563,-20.158l-1.186,0l0.962,1.461m-73.388,27.061c-8.462,3.013 -7.958,18.011 0.748,22.225c6.785,3.285 12.905,-1.873 12.346,-10.405c-0.521,-7.948 -7.154,-13.936 -13.094,-11.82m-92.997,44.62c-5.111,1.889 -7.14,5.066 -7.117,11.145c0.023,6.311 0.637,7.266 11.356,17.697c9.858,9.593 10.685,10.749 10.701,14.961c0.02,5.135 -2.029,6.878 -8.08,6.872c-6.735,-0.007 -8.152,-1.497 -8.456,-8.892l-0.2,-4.852l-2.751,0.132l-2.75,0.132l-0.136,2.882c-0.489,10.391 3.193,15.092 12.264,15.658c11.184,0.698 16.307,-3.378 15.871,-12.626c-0.301,-6.389 -3.32,-10.379 -17.579,-23.233c-7.482,-6.744 -6.095,-15.309 2.53,-15.624c6.69,-0.245 8.436,1.481 8.755,8.654l0.21,4.739l2.638,0l2.638,0l0,-5.183c0,-7.116 -1.204,-9.694 -5.618,-12.031c-2.531,-1.34 -11.114,-1.599 -14.276,-0.431m77.197,0.021c-2.804,0.932 -5.663,3.703 -6.413,6.215c-1.003,3.356 -0.75,40.825 0.291,43.094c2.124,4.63 5.463,6.292 12.639,6.292c9.805,0 13.436,-3.094 13.845,-11.797l0.195,-4.158l-2.975,0l-2.975,0l0,3.305c0,5.653 -2.17,7.717 -8.09,7.693c-7.755,-0.03 -7.64,0.323 -7.64,-23.525l0,-19.314l1.114,-1.324c1.66,-1.973 3.325,-2.485 7.325,-2.253c6.091,0.352 7.291,1.926 7.291,9.561l0,4.734l2.921,0l2.922,0l0,-4.863c0,-8.331 -2.106,-12.104 -7.68,-13.759c-3.154,-0.937 -9.812,-0.885 -12.77,0.099m97.069,-0.021c-3.358,1.202 -5.134,2.672 -6.33,5.241l-1.067,2.291l0.005,20c0.007,22.667 -0.064,22.169 3.609,25.313c5.446,4.661 18.599,3.745 22.445,-1.564c2.063,-2.848 2.247,-4.825 2.247,-24.139c0,-22.355 -0.337,-23.801 -6.194,-26.637c-2.939,-1.423 -11.342,-1.711 -14.715,-0.505m-139.091,27.308l0,27.191l12.383,0l12.383,0l-0.136,-2.36l-0.136,-2.359l-9.326,-0.122l-9.326,-0.121l0,-10.104l0,-10.103l7.191,0l7.191,0l0,-2.472l0,-2.472l-7.191,0l-7.191,0l0,-9.663l0,-9.662l8.989,0l8.989,0l0,-2.472l0,-2.472l-11.91,0l-11.91,0l0,27.191m70.412,-26.892c-0.165,0.165 -0.3,1.271 -0.3,2.458l0,2.159l5.506,0.126l5.505,0.126l0.116,24.607l0.117,24.607l2.917,0l2.918,0l0,-24.719l0,-24.719l5.393,0l5.393,0l0,-2.472l0,-2.472l-13.633,0c-7.498,0 -13.768,0.135 -13.932,0.299m34.756,2.148l0,2.447l2.135,0.137l2.135,0.137l0.116,22.135l0.117,22.135l-2.251,0l-2.252,0l0,2.472l0,2.472l7.191,0l7.191,0l0,-2.472l0,-2.472l-2.251,0l-2.252,0l0.117,-22.135l0.117,-22.135l2.134,-0.137l2.135,-0.137l0,-2.447l0,-2.447l-7.191,0l-7.191,0l0,2.447m69.214,24.723l0,27.212l2.917,0l2.916,0l0.117,-20.678l0.117,-20.677l8.963,20.677l8.963,20.678l3.063,0l3.063,0l-0.116,-27.079l-0.116,-27.079l-2.804,-0.133l-2.805,-0.134l-0.117,21.033l-0.116,21.032l-9.076,-20.899l-9.075,-20.899l-2.947,-0.132l-2.947,-0.133l0,27.211m-23.032,-21.944c2.789,2.045 2.806,2.175 2.806,22.189c0,16.436 -0.077,18.354 -0.786,19.76c-2.322,4.603 -12.816,4.84 -15.273,0.345c-1.326,-2.427 -1.204,-38.806 0.137,-40.634c2.189,-2.984 9.967,-3.968 13.116,-1.66m-168.878,61.067c-6.371,1.443 -9.172,5.267 -8.892,12.134c0.244,5.962 1.012,7.123 11.436,17.282c4.752,4.632 9.083,9.172 9.624,10.09c1.28,2.169 1.469,7.143 0.337,8.872c-2.325,3.551 -10.408,4.043 -13.984,0.85l-1.443,-1.288l-0.151,-5.207l-0.151,-5.206l-2.883,0l-2.882,0l0.002,4.831c0.006,10.485 3.559,13.888 14.38,13.769c9.786,-0.108 13.701,-3.534 13.652,-11.947c-0.037,-6.43 -0.945,-7.825 -12.046,-18.515c-10.123,-9.747 -10.368,-10.11 -10.063,-14.899c0.282,-4.432 2.363,-6.121 7.584,-6.154c6.183,-0.038 8.062,2.107 8.063,9.207l0.001,4.382l2.977,0l2.976,0l-0.206,-5.281c-0.435,-11.148 -6.693,-15.558 -18.331,-12.92m41.348,-0.033c-4.611,1.058 -6.323,2.254 -8.164,5.705l-1.05,1.967l0,20.237l0,20.237l1.149,2.231c2.616,5.085 10.098,7.347 17.746,5.365c5.861,-1.518 8.174,-4.6 8.62,-11.489l0.259,-3.996l-2.93,0l-2.93,0l-0.205,3.528c-0.335,5.792 -3.063,8.117 -8.9,7.588c-7.135,-0.647 -7.189,-0.825 -7.19,-23.483c-0.001,-22.99 0.16,-23.461 7.929,-23.295c6.439,0.138 7.922,1.858 8.178,9.482l0.169,5.056l2.934,0l2.933,0l-0.221,-5.506c-0.465,-11.559 -6.802,-16.271 -18.327,-13.627m79.716,0c-4.76,1.085 -7.485,3.212 -8.77,6.847c-0.886,2.508 -0.886,39.593 0,42.1c3.249,9.191 21.421,10.328 26.313,1.647l1.393,-2.472l0,-19.776c0,-22.497 -0.021,-22.645 -3.499,-25.623c-3.269,-2.798 -9.942,-3.975 -15.437,-2.723m-47.806,27.849l0,27.239l2.921,0l2.922,0l0,-9.663l0,-9.663l3.347,0l3.348,0l5,9.663l5.001,9.663l3.151,0l3.151,0l-4.982,-9.668c-5.468,-10.611 -5.378,-10.371 -4.054,-10.791c4.752,-1.508 6.038,-4.952 6.038,-16.17c0,-10.777 -0.521,-12.692 -4.122,-15.17c-3.04,-2.092 -4.018,-2.278 -13.069,-2.483l-8.652,-0.195l0,27.238m81.348,0.048l0,27.191l10.562,0l10.562,0l0,-2.472l0,-2.472l-7.641,0l-7.64,0l0,-24.719l0,-24.719l-2.921,0l-2.922,0l0,27.191m30.113,0l0,27.191l10.561,0l10.562,0l0,-2.472l0,-2.472l-7.64,0l-7.641,0l0,-24.719l0,-24.719l-2.921,0l-2.921,0l0,27.191m-53.962,-22.321c3.516,1.703 3.4,0.936 3.4,22.466c0,18.097 -0.048,19.252 -0.853,20.44c-2.743,4.046 -12.737,3.84 -15.01,-0.309c-0.805,-1.469 -1.444,-33.286 -0.762,-37.945c0.735,-5.021 7.528,-7.41 13.225,-4.652m-40.497,1.136c2.64,1.404 3.201,3.451 3.213,11.717c0.015,11.099 -0.992,12.389 -9.668,12.389l-4.704,0l0,-12.634l0,-12.634l4.831,0.183c3.48,0.132 5.25,0.405 6.328,0.979" id="path0"/>
  </g>
 </g>
</svg>